<svg xmlns="http://www.w3.org/2000/svg" xmlns:xlink="http://www.w3.org/1999/xlink" contentStyleType="text/css" height="624px" preserveAspectRatio="none" style="width:551px;height:624px;background:#FFFFFF;" version="1.1" viewBox="0 0 551 624" width="551px" zoomAndPan="magnify"><defs/><g><line style="stroke:#181818;stroke-width:0.5;stroke-dasharray:5.0,5.0;" x1="37" x2="37" y1="40.2719" y2="584.8081"/><line style="stroke:#181818;stroke-width:0.5;stroke-dasharray:5.0,5.0;" x1="254.2963" x2="254.2963" y1="40.2719" y2="584.8081"/><line style="stroke:#181818;stroke-width:0.5;stroke-dasharray:5.0,5.0;" x1="471.5945" x2="471.5945" y1="40.2719" y2="584.8081"/><rect fill="#E2E2F0" height="34.2719" rx="2.5" ry="2.5" style="stroke:#181818;stroke-width:0.5;" width="65.2958" x="5" y="5"/><text fill="#000000" font-family="sans-serif" font-size="14" lengthAdjust="spacing" textLength="51.2958" x="12" y="28.2399">thread1</text><rect fill="#E2E2F0" height="34.2719" rx="2.5" ry="2.5" style="stroke:#181818;stroke-width:0.5;" width="65.2958" x="5" y="583.8081"/><text fill="#000000" font-family="sans-serif" font-size="14" lengthAdjust="spacing" textLength="51.2958" x="12" y="607.0481">thread1</text><rect fill="#E2E2F0" height="34.2719" rx="2.5" ry="2.5" style="stroke:#181818;stroke-width:0.5;" width="81.2977" x="214.2963" y="5"/><text fill="#000000" font-family="sans-serif" font-size="14" lengthAdjust="spacing" textLength="67.2977" x="221.2963" y="28.2399">MarkWord</text><rect fill="#E2E2F0" height="34.2719" rx="2.5" ry="2.5" style="stroke:#181818;stroke-width:0.5;" width="81.2977" x="214.2963" y="583.8081"/><text fill="#000000" font-family="sans-serif" font-size="14" lengthAdjust="spacing" textLength="67.2977" x="221.2963" y="607.0481">MarkWord</text><rect fill="#E2E2F0" height="34.2719" rx="2.5" ry="2.5" style="stroke:#181818;stroke-width:0.5;" width="65.2958" x="439.5945" y="5"/><text fill="#000000" font-family="sans-serif" font-size="14" lengthAdjust="spacing" textLength="51.2958" x="446.5945" y="28.2399">thread2</text><rect fill="#E2E2F0" height="34.2719" rx="2.5" ry="2.5" style="stroke:#181818;stroke-width:0.5;" width="65.2958" x="439.5945" y="583.8081"/><text fill="#000000" font-family="sans-serif" font-size="14" lengthAdjust="spacing" textLength="51.2958" x="446.5945" y="607.0481">thread2</text><line style="stroke:#181818;stroke-width:1;" x1="37.6479" x2="79.6479" y1="75.0959" y2="75.0959"/><line style="stroke:#181818;stroke-width:1;" x1="79.6479" x2="79.6479" y1="75.0959" y2="88.0959"/><line style="stroke:#181818;stroke-width:1;" x1="38.6479" x2="79.6479" y1="88.0959" y2="88.0959"/><polygon fill="#181818" points="48.6479,84.0959,38.6479,88.0959,48.6479,92.0959,44.6479,88.0959" style="stroke:#181818;stroke-width:1;"/><text fill="#000000" font-family="sans-serif" font-size="13" lengthAdjust="spacing" textLength="65.0001" x="44.6479" y="69.3519">&#35775;&#38382;&#20020;&#30028;&#21306;</text><polygon fill="#181818" points="242.9451,116.9199,252.9451,120.9199,242.9451,124.9199,246.9451,120.9199" style="stroke:#181818;stroke-width:1;"/><line style="stroke:#181818;stroke-width:1;" x1="37.6479" x2="248.9451" y1="120.9199" y2="120.9199"/><text fill="#000000" font-family="sans-serif" font-size="13" lengthAdjust="spacing" textLength="193.2972" x="44.6479" y="115.1759">&#26816;&#26597;&#23545;&#35937;&#22836;&#26159;&#21542;&#35774;&#32622;&#20102;thread1 ID</text><polygon fill="#181818" points="48.6479,149.744,38.6479,153.744,48.6479,157.744,44.6479,153.744" style="stroke:#181818;stroke-width:1;"/><line style="stroke:#181818;stroke-width:1;" x1="42.6479" x2="253.9451" y1="153.744" y2="153.744"/><text fill="#000000" font-family="sans-serif" font-size="13" lengthAdjust="spacing" textLength="64.7531" x="54.6479" y="148">&#32447;&#31243;ID&#20026;&#31354;</text><polygon fill="#181818" points="242.9451,182.568,252.9451,186.568,242.9451,190.568,246.9451,186.568" style="stroke:#181818;stroke-width:1;"/><line style="stroke:#181818;stroke-width:1;" x1="37.6479" x2="248.9451" y1="186.568" y2="186.568"/><text fill="#000000" font-family="sans-serif" font-size="13" lengthAdjust="spacing" textLength="147.2252" x="44.6479" y="180.824">CAS&#26367;&#25442;&#32447;&#31243;ID, &#25351;&#21521;&#33258;&#24049;</text><line style="stroke:#181818;stroke-width:1;" x1="472.2424" x2="514.2424" y1="219.392" y2="219.392"/><line style="stroke:#181818;stroke-width:1;" x1="514.2424" x2="514.2424" y1="219.392" y2="232.392"/><line style="stroke:#181818;stroke-width:1;" x1="473.2424" x2="514.2424" y1="232.392" y2="232.392"/><polygon fill="#181818" points="483.2424,228.392,473.2424,232.392,483.2424,236.392,479.2424,232.392" style="stroke:#181818;stroke-width:1;"/><text fill="#000000" font-family="sans-serif" font-size="13" lengthAdjust="spacing" textLength="65.0001" x="479.2424" y="213.648">&#35775;&#38382;&#20020;&#30028;&#21306;</text><polygon fill="#181818" points="265.9451,261.216,255.9451,265.216,265.9451,269.216,261.9451,265.216" style="stroke:#181818;stroke-width:1;"/><line style="stroke:#181818;stroke-width:1;" x1="259.9451" x2="471.2424" y1="265.216" y2="265.216"/><text fill="#000000" font-family="sans-serif" font-size="13" lengthAdjust="spacing" textLength="193.2972" x="271.9451" y="259.472">&#26816;&#26597;&#23545;&#35937;&#22836;&#26159;&#21542;&#35774;&#32622;&#20102;thread2 ID</text><polygon fill="#181818" points="460.2424,294.04,470.2424,298.04,460.2424,302.04,464.2424,298.04" style="stroke:#181818;stroke-width:1;"/><line style="stroke:#181818;stroke-width:1;" x1="254.9451" x2="466.2424" y1="298.04" y2="298.04"/><text fill="#000000" font-family="sans-serif" font-size="13" lengthAdjust="spacing" textLength="112.3851" x="261.9451" y="292.296">&#32447;&#31243;ID&#25351;&#21521;thread1</text><line style="stroke:#181818;stroke-width:1;" x1="37.6479" x2="79.6479" y1="330.864" y2="330.864"/><line style="stroke:#181818;stroke-width:1;" x1="79.6479" x2="79.6479" y1="330.864" y2="343.864"/><line style="stroke:#181818;stroke-width:1;" x1="38.6479" x2="79.6479" y1="343.864" y2="343.864"/><polygon fill="#181818" points="48.6479,339.864,38.6479,343.864,48.6479,347.864,44.6479,343.864" style="stroke:#181818;stroke-width:1;"/><text fill="#000000" font-family="sans-serif" font-size="13" lengthAdjust="spacing" textLength="91.0001" x="44.6479" y="325.12">&#25191;&#34892;&#20020;&#30028;&#21306;&#20195;&#30721;</text><polygon fill="#181818" points="265.9451,372.6881,255.9451,376.6881,265.9451,380.6881,261.9451,376.6881" style="stroke:#181818;stroke-width:1;"/><line style="stroke:#181818;stroke-width:1;" x1="259.9451" x2="471.2424" y1="376.6881" y2="376.6881"/><text fill="#000000" font-family="sans-serif" font-size="13" lengthAdjust="spacing" textLength="88.6991" x="271.9451" y="370.9441">CAS&#26367;&#25442;&#32447;&#31243;ID</text><polygon fill="#181818" points="460.2424,405.5121,470.2424,409.5121,460.2424,413.5121,464.2424,409.5121" style="stroke:#181818;stroke-width:1;"/><line style="stroke:#181818;stroke-width:1;" x1="254.9451" x2="466.2424" y1="409.5121" y2="409.5121"/><text fill="#000000" font-family="sans-serif" font-size="13" lengthAdjust="spacing" textLength="39" x="261.9451" y="403.7681">&#19981;&#25104;&#21151;</text><polygon fill="#181818" points="48.6479,438.3361,38.6479,442.3361,48.6479,446.3361,44.6479,442.3361" style="stroke:#181818;stroke-width:1;"/><line style="stroke:#181818;stroke-width:1;" x1="42.6479" x2="471.2424" y1="442.3361" y2="442.3361"/><text fill="#000000" font-family="sans-serif" font-size="13" lengthAdjust="spacing" textLength="65.0001" x="54.6479" y="436.5921">&#25764;&#38144;&#20559;&#21521;&#38145;</text><line style="stroke:#181818;stroke-width:1;" x1="37.6479" x2="79.6479" y1="475.1601" y2="475.1601"/><line style="stroke:#181818;stroke-width:1;" x1="79.6479" x2="79.6479" y1="475.1601" y2="488.1601"/><line style="stroke:#181818;stroke-width:1;" x1="38.6479" x2="79.6479" y1="488.1601" y2="488.1601"/><polygon fill="#181818" points="48.6479,484.1601,38.6479,488.1601,48.6479,492.1601,44.6479,488.1601" style="stroke:#181818;stroke-width:1;"/><text fill="#000000" font-family="sans-serif" font-size="13" lengthAdjust="spacing" textLength="52.0001" x="44.6479" y="469.4161">&#26242;&#20572;&#32447;&#31243;</text><polygon fill="#181818" points="242.9451,516.9841,252.9451,520.9841,242.9451,524.9841,246.9451,520.9841" style="stroke:#181818;stroke-width:1;"/><line style="stroke:#181818;stroke-width:1;" x1="37.6479" x2="248.9451" y1="520.9841" y2="520.9841"/><text fill="#000000" font-family="sans-serif" font-size="13" lengthAdjust="spacing" textLength="129.7532" x="44.6479" y="515.2401">&#35299;&#38145;&#65292;&#23558;&#32447;&#31243;ID&#35774;&#20026;&#31354;</text><line style="stroke:#181818;stroke-width:1;" x1="37.6479" x2="79.6479" y1="553.8081" y2="553.8081"/><line style="stroke:#181818;stroke-width:1;" x1="79.6479" x2="79.6479" y1="553.8081" y2="566.8081"/><line style="stroke:#181818;stroke-width:1;" x1="38.6479" x2="79.6479" y1="566.8081" y2="566.8081"/><polygon fill="#181818" points="48.6479,562.8081,38.6479,566.8081,48.6479,570.8081,44.6479,566.8081" style="stroke:#181818;stroke-width:1;"/><text fill="#000000" font-family="sans-serif" font-size="13" lengthAdjust="spacing" textLength="52.0001" x="44.6479" y="548.0641">&#24674;&#22797;&#32447;&#31243;</text><!--SRC=[AqWiAibCpYn8p2jHACaeIarCCUGgG1BpJIpA3iylIa4HX2Wque9gKD2rW-bLi59uiMx_o-dhdkpOydngpzEUNSYAO8O1LJrRtF1i_jAdwtU-sBZmwP8jpsQiVpfXsOjr-vxlNVTaLnjCZwSBNBkDBhBsvxlsFr_HxUdoPCUkvojnsU7i6FnizlvdlOjWgdKKdlMqFvqmyKNxggVRDq9r6I6SRuJJ-KPaEDy8uNmZ7Cw7E0SMxbY3yrddyXSBU-3kUR9xyVC5ZJXSXU5X7DO_sT7xh6F2qwxvc440jdBIafTJ6fuszWFTzd9A8mvtpMfwsZW7OX6Ey7-nV35G-_izFKytjC5S10mZp3X3ChLnqTCblH350000]--></g></svg>