<svg xmlns="http://www.w3.org/2000/svg" xmlns:xlink="http://www.w3.org/1999/xlink" contentStyleType="text/css" height="806px" preserveAspectRatio="none" style="width:402px;height:806px;background:#FFFFFF;" version="1.1" viewBox="0 0 402 806" width="402px" zoomAndPan="magnify"><defs/><g><ellipse cx="199.25" cy="16" fill="#222222" rx="10" ry="10" style="stroke:#222222;stroke-width:1;"/><rect fill="#F1F1F1" height="37.3761" rx="12.5" ry="12.5" style="stroke:#181818;stroke-width:0.5;" width="50.6602" x="138.92" y="67"/><text fill="#000000" font-family="sans-serif" font-size="12" lengthAdjust="spacing" textLength="30.6602" x="148.92" y="90.9201">&#32447;&#31243;1</text><rect fill="#F1F1F1" height="37.3761" rx="12.5" ry="12.5" style="stroke:#181818;stroke-width:0.5;" width="80.0005" x="159.25" y="145.38"/><text fill="#000000" font-family="sans-serif" font-size="12" lengthAdjust="spacing" textLength="60.0005" x="169.25" y="169.3001">&#35775;&#38382;&#20020;&#30028;&#21306;</text><rect fill="#F1F1F1" height="37.3761" rx="12.5" ry="12.5" style="stroke:#181818;stroke-width:0.5;" width="80.0005" x="159.25" y="223.76"/><text fill="#000000" font-family="sans-serif" font-size="12" lengthAdjust="spacing" textLength="60.0005" x="169.25" y="247.6801">&#33719;&#21462;&#20559;&#21521;&#38145;</text><rect fill="#F1F1F1" height="37.3761" rx="12.5" ry="12.5" style="stroke:#181818;stroke-width:0.5;" width="204.5014" x="7" y="318.13"/><text fill="#000000" font-family="sans-serif" font-size="12" lengthAdjust="spacing" textLength="184.5014" x="17" y="342.0501">CAS&#20462;&#25913;Mark Word, &#33719;&#21462;&#36731;&#37327;&#32423;&#38145;</text><rect fill="#F1F1F1" height="37.3761" rx="12.5" ry="12.5" style="stroke:#181818;stroke-width:0.5;" width="104.0006" x="115.25" y="412.51"/><text fill="#000000" font-family="sans-serif" font-size="12" lengthAdjust="spacing" textLength="84.0006" x="125.25" y="436.4301">&#25191;&#34892;&#20020;&#30028;&#21306;&#20195;&#30721;</text><rect fill="#F1F1F1" height="37.3761" rx="12.5" ry="12.5" style="stroke:#181818;stroke-width:0.5;" width="56.0003" x="170.25" y="527.26"/><text fill="#000000" font-family="sans-serif" font-size="12" lengthAdjust="spacing" textLength="36.0003" x="180.25" y="551.1801">&#37322;&#25918;&#38145;</text><rect fill="#F1F1F1" height="37.3761" rx="12.5" ry="12.5" style="stroke:#181818;stroke-width:0.5;" width="68.0004" x="204.25" y="621.64"/><text fill="#000000" font-family="sans-serif" font-size="12" lengthAdjust="spacing" textLength="48.0004" x="214.25" y="645.5601">&#32447;&#31243;&#38459;&#22622;</text><ellipse cx="238.25" cy="789.39" fill="none" rx="11" ry="11" style="stroke:#222222;stroke-width:1;"/><ellipse cx="238.25" cy="789.39" fill="#222222" rx="6" ry="6" style="stroke:#222222;stroke-width:1;"/><rect fill="#F1F1F1" height="37.3761" rx="12.5" ry="12.5" style="stroke:#181818;stroke-width:0.5;" width="50.6602" x="209.92" y="67"/><text fill="#000000" font-family="sans-serif" font-size="12" lengthAdjust="spacing" textLength="30.6602" x="219.92" y="90.9201">&#32447;&#31243;2</text><rect fill="#F1F1F1" height="37.3761" rx="12.5" ry="12.5" style="stroke:#181818;stroke-width:0.5;" width="116.0007" x="231.25" y="318.13"/><text fill="#000000" font-family="sans-serif" font-size="12" lengthAdjust="spacing" textLength="96.0007" x="241.25" y="342.0501">&#33258;&#26059;&#33719;&#21462;&#36731;&#37327;&#32423;&#38145;</text><rect fill="#F1F1F1" height="37.3761" rx="12.5" ry="12.5" style="stroke:#181818;stroke-width:0.5;" width="104.0006" x="232.25" y="469.89"/><text fill="#000000" font-family="sans-serif" font-size="12" lengthAdjust="spacing" textLength="84.0006" x="242.25" y="493.8101">&#33192;&#32960;&#20026;&#37325;&#37327;&#32423;&#38145;</text><rect fill="#F1F1F1" height="37.3761" rx="12.5" ry="12.5" style="stroke:#181818;stroke-width:0.5;" width="140.0009" x="256.25" y="700.01"/><text fill="#000000" font-family="sans-serif" font-size="12" lengthAdjust="spacing" textLength="120.0009" x="266.25" y="723.9301">&#21796;&#37266;&#21518;&#32487;&#32493;&#23581;&#35797;&#33719;&#21462;&#38145;</text><!--link start to ??1--><g id="link_start_&#32447;&#31243;1"><path d="M194.96,25.3 C189.67,35.54 183.2777,47.9113 176.3377,61.3213 " fill="none" id="start-to-&#32447;&#31243;1" style="stroke:#181818;stroke-width:1;"/><polygon fill="#181818" points="173.58,66.65,181.2691,60.4954,175.8781,62.2094,174.1641,56.8185,173.58,66.65" style="stroke:#181818;stroke-width:1;"/></g><!--link ??1 to ?????--><g id="link_&#32447;&#31243;1_&#35775;&#38382;&#20020;&#30028;&#21306;"><path d="M172.55,104.79 C178.12,116.97 182.9496,127.4958 188.5196,139.6458 " fill="none" id="&#32447;&#31243;1-to-&#35775;&#38382;&#20020;&#30028;&#21306;" style="stroke:#181818;stroke-width:1;"/><polygon fill="#181818" points="191.02,145.1,190.9055,135.2518,188.9363,140.5549,183.6333,138.5857,191.02,145.1" style="stroke:#181818;stroke-width:1;"/></g><!--link ????? to ?????--><g id="link_&#35775;&#38382;&#20020;&#30028;&#21306;_&#33719;&#21462;&#20559;&#21521;&#38145;"><path d="M192.76,183.17 C191.41,195.34 190.7372,205.3678 192.1072,217.5078 " fill="none" id="&#35775;&#38382;&#20020;&#30028;&#21306;-to-&#33719;&#21462;&#20559;&#21521;&#38145;" style="stroke:#181818;stroke-width:1;"/><polygon fill="#181818" points="192.78,223.47,195.7455,214.0782,192.2193,218.5015,187.796,214.9753,192.78,223.47" style="stroke:#181818;stroke-width:1;"/></g><!--link ????? to ?????--><g id="link_&#35775;&#38382;&#20020;&#30028;&#21306;_&#33719;&#21462;&#20559;&#21521;&#38145;"><path d="M205.74,183.17 C207.09,195.34 207.7628,205.3678 206.3928,217.5078 " fill="none" id="&#35775;&#38382;&#20020;&#30028;&#21306;-to-&#33719;&#21462;&#20559;&#21521;&#38145;-1" style="stroke:#181818;stroke-width:1;"/><polygon fill="#181818" points="205.72,223.47,210.704,214.9753,206.2807,218.5015,202.7545,214.0782,205.72,223.47" style="stroke:#181818;stroke-width:1;"/></g><!--link ????? to CAS??Mark Word, ??????--><g id="link_&#33719;&#21462;&#20559;&#21521;&#38145;_CAS&#20462;&#25913;Mark Word, &#33719;&#21462;&#36731;&#37327;&#32423;&#38145;"><path d="M169.07,261.52 C160.84,267.22 152.27,273.92 145.25,281.13 C134.63,292.05 128.2512,301.3188 121.7412,312.6388 " fill="none" id="&#33719;&#21462;&#20559;&#21521;&#38145;-to-CAS&#20462;&#25913;Mark Word, &#33719;&#21462;&#36731;&#37327;&#32423;&#38145;" style="stroke:#181818;stroke-width:1;"/><polygon fill="#181818" points="118.75,317.84,126.7043,312.0323,121.2426,313.5056,119.7693,308.044,118.75,317.84" style="stroke:#181818;stroke-width:1;"/><text fill="#000000" font-family="sans-serif" font-size="11" lengthAdjust="spacing" textLength="105.1043" x="146.25" y="294.8899">&#32447;&#31243;2&#20105;&#22842;&#65292;&#33719;&#21462;&#22833;&#36133;</text></g><!--link CAS??Mark Word, ?????? to ???????--><g id="link_CAS&#20462;&#25913;Mark Word, &#33719;&#21462;&#36731;&#37327;&#32423;&#38145;_&#25191;&#34892;&#20020;&#30028;&#21306;&#20195;&#30721;"><path d="M120.43,355.63 C130.64,371.89 142.4616,390.7073 152.7116,407.0473 " fill="none" id="CAS&#20462;&#25913;Mark Word, &#33719;&#21462;&#36731;&#37327;&#32423;&#38145;-to-&#25191;&#34892;&#20020;&#30028;&#21306;&#20195;&#30721;" style="stroke:#181818;stroke-width:1;"/><polygon fill="#181818" points="155.9,412.13,154.5059,402.3803,153.243,407.8944,147.7289,406.6315,155.9,412.13" style="stroke:#181818;stroke-width:1;"/><text fill="#000000" font-family="sans-serif" font-size="11" lengthAdjust="spacing" textLength="21.9998" x="144.45" y="389.2699">&#25104;&#21151;</text></g><!--link ??????? to ???--><g id="link_&#25191;&#34892;&#20020;&#30028;&#21306;&#20195;&#30721;_&#37322;&#25918;&#38145;"><path d="M167.76,450.21 C168.64,465.69 171,488.42 177.25,507.26 C179.47,513.94 179.9057,515.5948 183.3457,521.5948 " fill="none" id="&#25191;&#34892;&#20020;&#30028;&#21306;&#20195;&#30721;-to-&#37322;&#25918;&#38145;" style="stroke:#181818;stroke-width:1;"/><polygon fill="#181818" points="186.33,526.8,185.3237,517.0027,183.8431,522.4623,178.3834,520.9818,186.33,526.8" style="stroke:#181818;stroke-width:1;"/><text fill="#000000" font-family="sans-serif" font-size="11" lengthAdjust="spacing" textLength="43.9997" x="178.25" y="493.8299">&#25191;&#34892;&#23436;&#27605;</text></g><!--link ??? to ????--><g id="link_&#37322;&#25918;&#38145;_&#32447;&#31243;&#38459;&#22622;"><path d="M205.96,564.76 C213,581.01 220.9633,599.4151 228.0433,615.7451 " fill="none" id="&#37322;&#25918;&#38145;-to-&#32447;&#31243;&#38459;&#22622;" style="stroke:#181818;stroke-width:1;"/><polygon fill="#181818" points="230.43,621.25,230.5199,611.4016,228.4411,616.6626,223.1801,614.5838,230.43,621.25" style="stroke:#181818;stroke-width:1;"/><text fill="#000000" font-family="sans-serif" font-size="11" lengthAdjust="spacing" textLength="21.9998" x="222.83" y="598.3999">&#21796;&#37266;</text></g><!--link ???? to end--><g id="link_&#32447;&#31243;&#38459;&#22622;_end"><path d="M238.25,659.36 C238.25,690.5 238.25,747.39 238.25,772.09 " fill="none" id="&#32447;&#31243;&#38459;&#22622;-to-end" style="stroke:#181818;stroke-width:1;"/><polygon fill="#181818" points="238.25,778.09,242.25,769.09,238.25,773.09,234.25,769.09,238.25,778.09" style="stroke:#181818;stroke-width:1;"/></g><!--link start to ??2--><g id="link_start_&#32447;&#31243;2"><path d="M203.66,25.3 C209.11,35.54 215.7002,47.9439 222.8402,61.3539 " fill="none" id="start-to-&#32447;&#31243;2" style="stroke:#181818;stroke-width:1;"/><polygon fill="#181818" points="225.66,66.65,224.961,56.826,223.3101,62.2366,217.8995,60.5858,225.66,66.65" style="stroke:#181818;stroke-width:1;"/></g><!--link ??2 to ?????--><g id="link_&#32447;&#31243;2_&#35775;&#38382;&#20020;&#30028;&#21306;"><path d="M226.72,104.79 C220.98,116.97 216.0093,127.5232 210.2793,139.6732 " fill="none" id="&#32447;&#31243;2-to-&#35775;&#38382;&#20020;&#30028;&#21306;" style="stroke:#181818;stroke-width:1;"/><polygon fill="#181818" points="207.72,145.1,215.1768,138.666,209.8527,140.5777,207.9411,135.2536,207.72,145.1" style="stroke:#181818;stroke-width:1;"/></g><!--link ????? to ????????--><g id="link_&#33719;&#21462;&#20559;&#21521;&#38145;_&#33258;&#26059;&#33719;&#21462;&#36731;&#37327;&#32423;&#38145;"><path d="M229.43,261.52 C237.66,267.22 246.23,273.92 253.25,281.13 C263.87,292.05 270.2488,301.3188 276.7588,312.6388 " fill="none" id="&#33719;&#21462;&#20559;&#21521;&#38145;-to-&#33258;&#26059;&#33719;&#21462;&#36731;&#37327;&#32423;&#38145;" style="stroke:#181818;stroke-width:1;"/><polygon fill="#181818" points="279.75,317.84,278.7307,308.044,277.2574,313.5056,271.7957,312.0323,279.75,317.84" style="stroke:#181818;stroke-width:1;"/><text fill="#000000" font-family="sans-serif" font-size="11" lengthAdjust="spacing" textLength="43.9997" x="267.92" y="294.8899">&#33719;&#21462;&#22833;&#36133;</text></g><!--link ???????? to ???????--><g id="link_&#33258;&#26059;&#33719;&#21462;&#36731;&#37327;&#32423;&#38145;_&#33192;&#32960;&#20026;&#37325;&#37327;&#32423;&#38145;"><path d="M288.65,355.88 C287.69,384.67 286.0197,434.6233 285.0597,463.4533 " fill="none" id="&#33258;&#26059;&#33719;&#21462;&#36731;&#37327;&#32423;&#38145;-to-&#33192;&#32960;&#20026;&#37325;&#37327;&#32423;&#38145;" style="stroke:#181818;stroke-width:1;"/><polygon fill="#181818" points="284.86,469.45,289.1573,460.5881,285.0264,464.4528,281.1617,460.3219,284.86,469.45" style="stroke:#181818;stroke-width:1;"/><text fill="#000000" font-family="sans-serif" font-size="11" lengthAdjust="spacing" textLength="98.9993" x="288.99" y="389.2699">&#24490;&#29615;&#19968;&#23450;&#27425;&#25968;&#21518;&#22833;&#36133;</text></g><!--link ??????? to ????--><g id="link_&#33192;&#32960;&#20026;&#37325;&#37327;&#32423;&#38145;_&#32447;&#31243;&#38459;&#22622;"><path d="M278.91,507.45 C272.27,529.59 260.57,568.44 250.25,601.64 C248.25,608.06 247.8557,609.3745 245.8657,615.6045 " fill="none" id="&#33192;&#32960;&#20026;&#37325;&#37327;&#32423;&#38145;-to-&#32447;&#31243;&#38459;&#22622;" style="stroke:#181818;stroke-width:1;"/><polygon fill="#181818" points="244.04,621.32,250.5888,613.9639,245.5614,616.5571,242.9682,611.5296,244.04,621.32" style="stroke:#181818;stroke-width:1;"/></g><!--link ???? to ??????????--><g id="link_&#32447;&#31243;&#38459;&#22622;_&#21796;&#37266;&#21518;&#32487;&#32493;&#23581;&#35797;&#33719;&#21462;&#38145;"><path d="M259.11,659.43 C273.13,671.6 287.0185,683.6473 301.0185,695.7973 " fill="none" id="&#32447;&#31243;&#38459;&#22622;-to-&#21796;&#37266;&#21518;&#32487;&#32493;&#23581;&#35797;&#33719;&#21462;&#38145;" style="stroke:#181818;stroke-width:1;"/><polygon fill="#181818" points="305.55,699.73,301.3746,690.81,301.7738,696.4528,296.131,696.852,305.55,699.73" style="stroke:#181818;stroke-width:1;"/></g><!--link ?????????? to end--><g id="link_&#21796;&#37266;&#21518;&#32487;&#32493;&#23581;&#35797;&#33719;&#21462;&#38145;_end"><path d="M303.13,737.75 C284.59,752.22 264.35,768.0185 251.46,778.0785 " fill="none" id="&#21796;&#37266;&#21518;&#32487;&#32493;&#23581;&#35797;&#33719;&#21462;&#38145;-to-end" style="stroke:#181818;stroke-width:1;"/><polygon fill="#181818" points="246.73,781.77,256.286,779.3861,250.6717,778.6937,251.364,773.0794,246.73,781.77" style="stroke:#181818;stroke-width:1;"/></g><!--SRC=[bO_DIiD04CVlVOezfiKUx0C8ujcJ1m-IW-2j1w5Fq28qjbsJA8ajWX_1I4hHJOM2wQusBxEp7wU-GZ-I589uy3RC_7ypypDgLLIl7o19KpaUx5SsjIAf7XAUpAIF0TEiPt-1SmyT1znRxNKslRECQN3QWv0klt6U2J_LxCr4HuSdF2N2cn-VjvhezB9riPTlKJzCMuwaKR58NBlGVpQHw4KgmBl3dBtAbpondG318lPDfAs-y1O53LwektTchg1738AdxSz6hLenIdwDV_cLVPGr4SF17mQmc4WxvaaRo8Du3uG_1TVUaTsnkchpX6hhfeJzVZbpMREIHP9zmFHHnNvsis3MHYi0]--></g></svg>